<svg width="585" height="219" viewBox="0 0 585 219" fill="none" xmlns="http://www.w3.org/2000/svg">
<path d="M289.579 102.651V110.497H256.868V68.2503H288.795V76.0961H266.585V85.2697H286.199V92.8741H266.585V102.651H289.579ZM316.43 77.5446C320.453 77.5446 323.692 78.7516 326.147 81.1657C328.641 83.5798 329.889 87.1607 329.889 91.9084V110.497H320.474V93.3569C320.474 90.7819 319.91 88.8707 318.784 87.6234C317.657 86.3359 316.028 85.6921 313.895 85.6921C311.521 85.6921 309.63 86.4365 308.222 87.9252C306.814 89.3736 306.11 91.5463 306.11 94.4432V110.497H296.695V78.0274H305.687V81.8296C306.934 80.4616 308.484 79.4155 310.334 78.6912C312.185 77.9268 314.217 77.5446 316.43 77.5446ZM349.347 110.98C346.651 110.98 344.015 110.658 341.44 110.014C338.865 109.33 336.813 108.485 335.284 107.479L338.423 100.72C339.871 101.645 341.621 102.41 343.673 103.013C345.725 103.577 347.737 103.858 349.709 103.858C353.692 103.858 355.684 102.872 355.684 100.901C355.684 99.9756 355.14 99.3117 354.054 98.9093C352.968 98.507 351.298 98.165 349.045 97.8833C346.389 97.481 344.196 97.0183 342.466 96.4952C340.736 95.9722 339.227 95.0468 337.94 93.719C336.693 92.3913 336.069 90.5002 336.069 88.0459C336.069 85.9939 336.652 84.1833 337.819 82.6142C339.026 81.0048 340.756 79.7575 343.01 78.8723C345.303 77.9871 347.999 77.5446 351.097 77.5446C353.39 77.5446 355.663 77.8061 357.917 78.3291C360.21 78.812 362.101 79.4959 363.59 80.3811L360.451 87.0802C357.595 85.4708 354.477 84.6661 351.097 84.6661C349.085 84.6661 347.576 84.9478 346.57 85.5111C345.564 86.0744 345.062 86.7986 345.062 87.6838C345.062 88.6896 345.605 89.3938 346.691 89.7961C347.777 90.1985 349.507 90.5807 351.881 90.9428C354.537 91.3854 356.71 91.8682 358.399 92.3913C360.089 92.8741 361.558 93.7794 362.805 95.1071C364.052 96.4349 364.676 98.2857 364.676 100.66C364.676 102.671 364.073 104.462 362.865 106.031C361.658 107.6 359.888 108.827 357.554 109.712C355.261 110.557 352.525 110.98 349.347 110.98ZM402.291 94.3829C402.291 94.5036 402.23 95.3485 402.11 96.9177H377.546C377.989 98.9294 379.035 100.519 380.685 101.686C382.334 102.852 384.386 103.436 386.841 103.436C388.53 103.436 390.019 103.194 391.307 102.712C392.634 102.188 393.862 101.384 394.988 100.297L399.997 105.729C396.94 109.23 392.473 110.98 386.599 110.98C382.938 110.98 379.699 110.276 376.882 108.867C374.066 107.419 371.893 105.427 370.364 102.893C368.835 100.358 368.071 97.481 368.071 94.2622C368.071 91.0836 368.815 88.2269 370.304 85.6921C371.833 83.1171 373.905 81.1255 376.52 79.7172C379.176 78.2688 382.133 77.5446 385.392 77.5446C388.571 77.5446 391.447 78.2285 394.022 79.5965C396.598 80.9645 398.609 82.936 400.058 85.5111C401.546 88.0459 402.291 91.0032 402.291 94.3829ZM385.452 84.6661C383.32 84.6661 381.53 85.2697 380.081 86.4767C378.633 87.6838 377.747 89.3334 377.426 91.4256H393.419C393.097 89.3736 392.212 87.7441 390.763 86.5371C389.315 85.2898 387.545 84.6661 385.452 84.6661ZM450.142 77.5446C454.206 77.5446 457.424 78.7516 459.798 81.1657C462.212 83.5396 463.419 87.1205 463.419 91.9084V110.497H454.004V93.3569C454.004 90.7819 453.461 88.8707 452.375 87.6234C451.329 86.3359 449.82 85.6921 447.848 85.6921C445.635 85.6921 443.885 86.4164 442.598 87.8648C441.31 89.2731 440.666 91.3854 440.666 94.2018V110.497H431.251V93.3569C431.251 88.2471 429.199 85.6921 425.096 85.6921C422.923 85.6921 421.193 86.4164 419.905 87.8648C418.618 89.2731 417.974 91.3854 417.974 94.2018V110.497H408.559V78.0274H417.551V81.7692C418.758 80.4012 420.227 79.3551 421.957 78.6309C423.728 77.9067 425.659 77.5446 427.751 77.5446C430.044 77.5446 432.117 78.0073 433.967 78.9327C435.818 79.8178 437.307 81.1255 438.433 82.8556C439.761 81.1657 441.431 79.8581 443.443 78.9327C445.495 78.0073 447.728 77.5446 450.142 77.5446ZM491.05 77.5446C494.068 77.5446 496.804 78.2487 499.258 79.6569C501.753 81.0249 503.704 82.9763 505.113 85.5111C506.521 88.0056 507.225 90.9227 507.225 94.2622C507.225 97.6017 506.521 100.539 505.113 103.074C503.704 105.568 501.753 107.52 499.258 108.928C496.804 110.296 494.068 110.98 491.05 110.98C486.584 110.98 483.184 109.572 480.851 106.755V110.497H471.858V65.7155H481.273V81.4675C483.647 78.8522 486.906 77.5446 491.05 77.5446ZM489.421 103.255C491.835 103.255 493.807 102.45 495.335 100.841C496.905 99.191 497.689 96.9982 497.689 94.2622C497.689 91.5262 496.905 89.3535 495.335 87.7441C493.807 86.0945 491.835 85.2697 489.421 85.2697C487.007 85.2697 485.015 86.0945 483.446 87.7441C481.917 89.3535 481.153 91.5262 481.153 94.2622C481.153 96.9982 481.917 99.191 483.446 100.841C485.015 102.45 487.007 103.255 489.421 103.255ZM513.527 65.7155H522.942V110.497H513.527V65.7155ZM563.486 94.3829C563.486 94.5036 563.426 95.3485 563.305 96.9177H538.742C539.184 98.9294 540.23 100.519 541.88 101.686C543.53 102.852 545.582 103.436 548.036 103.436C549.726 103.436 551.214 103.194 552.502 102.712C553.83 102.188 555.057 101.384 556.183 100.297L561.193 105.729C558.135 109.23 553.669 110.98 547.794 110.98C544.133 110.98 540.894 110.276 538.078 108.867C535.261 107.419 533.089 105.427 531.56 102.893C530.031 100.358 529.266 97.481 529.266 94.2622C529.266 91.0836 530.011 88.2269 531.499 85.6921C533.028 83.1171 535.1 81.1255 537.716 79.7172C540.371 78.2688 543.328 77.5446 546.587 77.5446C549.766 77.5446 552.643 78.2285 555.218 79.5965C557.793 80.9645 559.805 82.936 561.253 85.5111C562.742 88.0459 563.486 91.0032 563.486 94.3829ZM546.648 84.6661C544.515 84.6661 542.725 85.2697 541.276 86.4767C539.828 87.6838 538.943 89.3334 538.621 91.4256H554.614C554.292 89.3736 553.407 87.7441 551.959 86.5371C550.51 85.2898 548.74 84.6661 546.648 84.6661Z" fill="#333333"/>
<path d="M342.675 145.38H344.404V133.273H342.675V145.38ZM352.162 145.38H353.875V134.778H358.025V133.273H348.012V134.778H352.162V145.38ZM371.541 145.518C374.741 145.518 376.228 143.927 376.228 142.076C376.228 137.631 368.895 139.482 368.895 136.524C368.895 135.469 369.777 134.605 371.835 134.605C372.907 134.605 374.101 134.916 375.156 135.591L375.726 134.207C374.723 133.515 373.253 133.135 371.835 133.135C368.653 133.135 367.2 134.726 367.2 136.594C367.2 141.09 374.533 139.222 374.533 142.18C374.533 143.235 373.634 144.048 371.541 144.048C369.984 144.048 368.445 143.46 367.546 142.647L366.906 143.996C367.874 144.895 369.69 145.518 371.541 145.518ZM385.949 145.518C389.633 145.518 392.366 142.889 392.366 139.326C392.366 135.763 389.633 133.135 385.949 133.135C382.231 133.135 379.498 135.781 379.498 139.326C379.498 142.872 382.231 145.518 385.949 145.518ZM385.949 143.979C383.234 143.979 381.228 142.007 381.228 139.326C381.228 136.646 383.234 134.674 385.949 134.674C388.63 134.674 390.636 136.646 390.636 139.326C390.636 142.007 388.63 143.979 385.949 143.979ZM396.739 145.38H405.023V143.875H398.468V133.273H396.739V145.38ZM413.55 145.518C416.75 145.518 418.669 143.667 418.669 140.156V133.273H416.992V140.087C416.992 142.768 415.747 143.979 413.567 143.979C411.388 143.979 410.16 142.768 410.16 140.087V133.273H408.431V140.156C408.431 143.667 410.368 145.518 413.55 145.518ZM426.129 145.38H427.841V134.778H431.992V133.273H421.978V134.778H426.129V145.38ZM435.605 145.38H437.335V133.273H435.605V145.38ZM448.154 145.518C451.838 145.518 454.571 142.889 454.571 139.326C454.571 135.763 451.838 133.135 448.154 133.135C444.436 133.135 441.703 135.781 441.703 139.326C441.703 142.872 444.436 145.518 448.154 145.518ZM448.154 143.979C445.439 143.979 443.433 142.007 443.433 139.326C443.433 136.646 445.439 134.674 448.154 134.674C450.835 134.674 452.841 136.646 452.841 139.326C452.841 142.007 450.835 143.979 448.154 143.979ZM467.626 133.273V142.301L460.362 133.273H458.943V145.38H460.673V136.352L467.937 145.38H469.355V133.273H467.626ZM478.237 145.518C481.436 145.518 482.923 143.927 482.923 142.076C482.923 137.631 475.59 139.482 475.59 136.524C475.59 135.469 476.472 134.605 478.531 134.605C479.603 134.605 480.796 134.916 481.851 135.591L482.422 134.207C481.419 133.515 479.949 133.135 478.531 133.135C475.348 133.135 473.895 134.726 473.895 136.594C473.895 141.09 481.229 139.222 481.229 142.18C481.229 143.235 480.329 144.048 478.237 144.048C476.68 144.048 475.141 143.46 474.241 142.647L473.601 143.996C474.57 144.895 476.386 145.518 478.237 145.518Z" fill="#4F4F4F"/>
<rect x="258.175" y="163.298" width="307.527" height="0.360313" fill="#4F4F4F"/>
<path d="M275.568 177.597L272.315 187.321L269.097 177.597H266.916L263.627 187.267L260.464 177.597H258.01L262.227 190.32H264.754L267.952 180.905L271.097 190.32H273.605L277.822 177.597H275.568ZM293.105 185.522C293.105 182.486 291.033 180.505 288.197 180.505C285.308 180.505 283.181 182.577 283.181 185.467C283.181 188.357 285.289 190.447 288.543 190.447C290.215 190.447 291.578 189.902 292.451 188.866L291.233 187.466C290.542 188.175 289.688 188.521 288.597 188.521C286.907 188.521 285.726 187.612 285.453 186.194H293.069C293.087 185.976 293.105 185.703 293.105 185.522ZM288.197 182.323C289.688 182.323 290.76 183.286 290.942 184.686H285.435C285.653 183.268 286.725 182.323 288.197 182.323ZM313.669 190.447C316.396 190.447 318.068 189.266 318.068 187.448C318.068 183.65 312.07 185.394 312.07 183.432C312.07 182.795 312.724 182.341 314.105 182.341C315.032 182.341 315.959 182.523 316.886 183.068L317.759 181.341C316.886 180.814 315.414 180.505 314.124 180.505C311.506 180.505 309.852 181.705 309.852 183.541C309.852 187.412 315.85 185.667 315.85 187.521C315.85 188.193 315.251 188.593 313.815 188.593C312.597 188.593 311.288 188.193 310.434 187.63L309.562 189.357C310.434 189.975 312.052 190.447 313.669 190.447ZM326.349 179.015C327.204 179.015 327.803 178.397 327.803 177.597C327.803 176.852 327.185 176.289 326.349 176.289C325.513 176.289 324.895 176.888 324.895 177.652C324.895 178.415 325.513 179.015 326.349 179.015ZM325.204 190.32H327.476V180.614H325.204V190.32ZM347.888 180.505C346.343 180.505 345.035 181.123 344.253 182.123C343.581 181.032 342.399 180.505 340.982 180.505C339.655 180.505 338.528 180.978 337.801 181.85V180.614H335.638V190.32H337.91V185.394C337.91 183.468 338.928 182.486 340.436 182.486C341.818 182.486 342.618 183.322 342.618 185.049V190.32H344.889V185.394C344.889 183.468 345.925 182.486 347.416 182.486C348.797 182.486 349.597 183.322 349.597 185.049V190.32H351.869V184.758C351.869 181.832 350.233 180.505 347.888 180.505ZM365.332 180.505C364.005 180.505 362.878 180.96 362.115 181.887V180.614H359.952V193.846H362.224V189.139C363.006 190.029 364.096 190.447 365.332 190.447C368.167 190.447 370.258 188.484 370.258 185.467C370.258 182.468 368.167 180.505 365.332 180.505ZM365.078 188.502C363.442 188.502 362.188 187.321 362.188 185.467C362.188 183.613 363.442 182.432 365.078 182.432C366.713 182.432 367.949 183.613 367.949 185.467C367.949 187.321 366.713 188.502 365.078 188.502ZM377.592 190.32H379.864V176.834H377.592V190.32ZM389.171 179.015C390.025 179.015 390.625 178.397 390.625 177.597C390.625 176.852 390.007 176.289 389.171 176.289C388.335 176.289 387.717 176.888 387.717 177.652C387.717 178.415 388.335 179.015 389.171 179.015ZM388.026 190.32H390.298V180.614H388.026V190.32ZM402.404 178.542C402.877 178.542 403.313 178.706 403.658 178.942L404.294 177.234C403.785 176.87 403.022 176.707 402.24 176.707C399.987 176.707 398.769 178.033 398.769 180.069V180.687H397.169V182.505H398.769V190.32H401.041V182.505H403.64V180.687H400.968V180.105C400.968 179.069 401.459 178.542 402.404 178.542ZM417.433 180.614L414.362 187.794L411.308 180.614H408.945L413.18 190.356L413.017 190.738C412.581 191.701 412.108 192.083 411.308 192.083C410.69 192.083 410.072 191.829 409.636 191.411L408.727 193.083C409.345 193.646 410.363 193.973 411.326 193.973C412.944 193.973 414.18 193.301 415.071 191.102L419.614 180.614H417.433ZM441.616 188.175C441.27 188.448 440.816 188.575 440.343 188.575C439.471 188.575 438.998 188.066 438.998 187.121V182.505H441.598V180.687H438.998V178.47H436.727V180.687H435.127V182.505H436.727V187.176C436.727 189.32 437.944 190.447 440.071 190.447C440.889 190.447 441.707 190.229 442.252 189.793L441.616 188.175ZM454.808 180.505C453.463 180.505 452.318 180.941 451.573 181.741V176.834H449.301V190.32H451.573V185.413C451.573 183.468 452.663 182.486 454.281 182.486C455.735 182.486 456.589 183.322 456.589 185.049V190.32H458.861V184.758C458.861 181.832 457.134 180.505 454.808 180.505ZM476.136 185.522C476.136 182.486 474.064 180.505 471.229 180.505C468.339 180.505 466.212 182.577 466.212 185.467C466.212 188.357 468.321 190.447 471.574 190.447C473.246 190.447 474.609 189.902 475.482 188.866L474.264 187.466C473.573 188.175 472.719 188.521 471.629 188.521C469.938 188.521 468.757 187.612 468.484 186.194H476.1C476.118 185.976 476.136 185.703 476.136 185.522ZM471.229 182.323C472.719 182.323 473.791 183.286 473.973 184.686H468.466C468.684 183.268 469.756 182.323 471.229 182.323ZM506.824 180.614L504.189 187.812L501.571 180.614H499.663L496.991 187.775L494.428 180.614H492.284L495.846 190.32H498.027L500.572 183.631L503.08 190.32H505.261L508.842 180.614H506.824ZM519.68 190.447C522.697 190.447 524.86 188.375 524.86 185.467C524.86 182.559 522.697 180.505 519.68 180.505C516.699 180.505 514.518 182.559 514.518 185.467C514.518 188.375 516.699 190.447 519.68 190.447ZM519.68 188.502C518.044 188.502 516.808 187.321 516.808 185.467C516.808 183.613 518.044 182.432 519.68 182.432C521.334 182.432 522.569 183.613 522.569 185.467C522.569 187.321 521.334 188.502 519.68 188.502ZM534.375 182.032V180.614H532.212V190.32H534.484V185.613C534.484 183.631 535.575 182.614 537.301 182.614C537.465 182.614 537.628 182.632 537.828 182.668V180.505C536.211 180.505 535.029 181.014 534.375 182.032ZM544.936 190.32H547.208V176.834H544.936V190.32ZM562.603 176.834V181.814C561.84 180.923 560.731 180.505 559.477 180.505C556.66 180.505 554.57 182.45 554.57 185.467C554.57 188.484 556.66 190.447 559.477 190.447C560.804 190.447 561.931 189.993 562.694 189.066V190.32H564.875V176.834H562.603ZM559.75 188.502C558.114 188.502 556.86 187.321 556.86 185.467C556.86 183.613 558.114 182.432 559.75 182.432C561.386 182.432 562.64 183.613 562.64 185.467C562.64 187.321 561.386 188.502 559.75 188.502Z" fill="#333333"/>
<rect x="258.175" y="204.186" width="307.527" height="0.360313" fill="#4F4F4F"/>
<path d="M122.145 112.357L200.362 157.515L197.659 162.195L119.456 117.044L41.3972 162.111L38.6951 157.431L116.741 112.371V22.5197H122.145V112.357Z" fill="white"/>
<mask id="mask0_3001_6" style="mask-type:alpha" maskUnits="userSpaceOnUse" x="38" y="22" width="163" height="185">
<path d="M41.6177 161.961L119.535 116.922L197.363 162.051L119.535 207L41.6177 161.961Z" fill="#C4C4C4"/>
<path d="M39.0052 157.399L116.969 112.44L116.8 22.4748L38.959 67.401L39.0052 157.399Z" fill="#C4C4C4" stroke="black" stroke-width="0.180157"/>
<path d="M122.059 22.5196L122.013 112.518L200.01 157.354L200.023 67.4788L122.059 22.5196Z" fill="#C4C4C4" stroke="black" stroke-width="0.180157"/>
</mask>
<g mask="url(#mask0_3001_6)">
<ellipse cx="117.913" cy="120.075" rx="116.832" ry="114.309" fill="url(#paint0_radial_3001_6)"/>
</g>
<defs>
<radialGradient id="paint0_radial_3001_6" cx="0" cy="0" r="1" gradientTransform="matrix(49.6351 54.5875 -54.7974 48.0487 117.821 116.562)" gradientUnits="userSpaceOnUse">
<stop stop-color="white" stop-opacity="0"/>
<stop offset="1" stop-color="#00C9FF"/>
</radialGradient>
</defs>
</svg>
